<mxfile host="app.diagrams.net" agent="Mozilla/5.0 (Macintosh; Intel Mac OS X 10_15_7) AppleWebKit/537.36 (KHTML, like Gecko) Chrome/134.0.0.0 Safari/537.36" version="26.1.3">
  <diagram name="第 1 页" id="MYwcNr1ugUrhSAHtThHv">
    <mxGraphModel dx="1026" dy="650" grid="1" gridSize="10" guides="1" tooltips="1" connect="1" arrows="1" fold="1" page="1" pageScale="1" pageWidth="827" pageHeight="1169" math="0" shadow="0">
      <root>
        <mxCell id="0" />
        <mxCell id="1" parent="0" />
        <mxCell id="_uf0qR5cUyTxKE8fxkCO-37" style="edgeStyle=orthogonalEdgeStyle;rounded=0;orthogonalLoop=1;jettySize=auto;html=1;exitX=0.5;exitY=1;exitDx=0;exitDy=0;entryX=0.5;entryY=0;entryDx=0;entryDy=0;" edge="1" parent="1" source="_uf0qR5cUyTxKE8fxkCO-5" target="_uf0qR5cUyTxKE8fxkCO-7">
          <mxGeometry relative="1" as="geometry" />
        </mxCell>
        <mxCell id="_uf0qR5cUyTxKE8fxkCO-38" style="edgeStyle=orthogonalEdgeStyle;rounded=0;orthogonalLoop=1;jettySize=auto;html=1;exitX=0.5;exitY=1;exitDx=0;exitDy=0;entryX=0.5;entryY=0;entryDx=0;entryDy=0;" edge="1" parent="1" source="_uf0qR5cUyTxKE8fxkCO-5" target="_uf0qR5cUyTxKE8fxkCO-21">
          <mxGeometry relative="1" as="geometry" />
        </mxCell>
        <mxCell id="_uf0qR5cUyTxKE8fxkCO-39" style="edgeStyle=orthogonalEdgeStyle;rounded=0;orthogonalLoop=1;jettySize=auto;html=1;exitX=0.5;exitY=1;exitDx=0;exitDy=0;" edge="1" parent="1" source="_uf0qR5cUyTxKE8fxkCO-5" target="_uf0qR5cUyTxKE8fxkCO-11">
          <mxGeometry relative="1" as="geometry" />
        </mxCell>
        <mxCell id="_uf0qR5cUyTxKE8fxkCO-40" style="edgeStyle=orthogonalEdgeStyle;rounded=0;orthogonalLoop=1;jettySize=auto;html=1;exitX=0.5;exitY=1;exitDx=0;exitDy=0;" edge="1" parent="1" source="_uf0qR5cUyTxKE8fxkCO-5" target="_uf0qR5cUyTxKE8fxkCO-9">
          <mxGeometry relative="1" as="geometry" />
        </mxCell>
        <mxCell id="_uf0qR5cUyTxKE8fxkCO-41" style="edgeStyle=orthogonalEdgeStyle;rounded=0;orthogonalLoop=1;jettySize=auto;html=1;exitX=0.5;exitY=1;exitDx=0;exitDy=0;entryX=0.5;entryY=0;entryDx=0;entryDy=0;" edge="1" parent="1" source="_uf0qR5cUyTxKE8fxkCO-5" target="_uf0qR5cUyTxKE8fxkCO-10">
          <mxGeometry relative="1" as="geometry" />
        </mxCell>
        <mxCell id="_uf0qR5cUyTxKE8fxkCO-5" value="管理员系统" style="rounded=0;whiteSpace=wrap;html=1;" vertex="1" parent="1">
          <mxGeometry x="230" y="190" width="280" height="40" as="geometry" />
        </mxCell>
        <mxCell id="_uf0qR5cUyTxKE8fxkCO-17" style="edgeStyle=orthogonalEdgeStyle;rounded=0;orthogonalLoop=1;jettySize=auto;html=1;exitX=0.5;exitY=1;exitDx=0;exitDy=0;entryX=0.5;entryY=0;entryDx=0;entryDy=0;" edge="1" parent="1" source="_uf0qR5cUyTxKE8fxkCO-7" target="_uf0qR5cUyTxKE8fxkCO-12">
          <mxGeometry relative="1" as="geometry">
            <Array as="points">
              <mxPoint x="115" y="340" />
              <mxPoint x="55" y="340" />
            </Array>
          </mxGeometry>
        </mxCell>
        <mxCell id="_uf0qR5cUyTxKE8fxkCO-18" style="edgeStyle=orthogonalEdgeStyle;rounded=0;orthogonalLoop=1;jettySize=auto;html=1;exitX=0.5;exitY=1;exitDx=0;exitDy=0;entryX=0.5;entryY=0;entryDx=0;entryDy=0;" edge="1" parent="1" source="_uf0qR5cUyTxKE8fxkCO-7" target="_uf0qR5cUyTxKE8fxkCO-13">
          <mxGeometry relative="1" as="geometry" />
        </mxCell>
        <mxCell id="_uf0qR5cUyTxKE8fxkCO-19" style="edgeStyle=orthogonalEdgeStyle;rounded=0;orthogonalLoop=1;jettySize=auto;html=1;exitX=0.5;exitY=1;exitDx=0;exitDy=0;entryX=0.5;entryY=0;entryDx=0;entryDy=0;" edge="1" parent="1" source="_uf0qR5cUyTxKE8fxkCO-7" target="_uf0qR5cUyTxKE8fxkCO-15">
          <mxGeometry relative="1" as="geometry" />
        </mxCell>
        <mxCell id="_uf0qR5cUyTxKE8fxkCO-20" style="edgeStyle=orthogonalEdgeStyle;rounded=0;orthogonalLoop=1;jettySize=auto;html=1;exitX=0.5;exitY=1;exitDx=0;exitDy=0;entryX=0.5;entryY=0;entryDx=0;entryDy=0;" edge="1" parent="1" source="_uf0qR5cUyTxKE8fxkCO-7" target="_uf0qR5cUyTxKE8fxkCO-16">
          <mxGeometry relative="1" as="geometry" />
        </mxCell>
        <mxCell id="_uf0qR5cUyTxKE8fxkCO-7" value="用户管理" style="rounded=0;whiteSpace=wrap;html=1;" vertex="1" parent="1">
          <mxGeometry x="70" y="280" width="90" height="40" as="geometry" />
        </mxCell>
        <mxCell id="_uf0qR5cUyTxKE8fxkCO-32" style="edgeStyle=orthogonalEdgeStyle;rounded=0;orthogonalLoop=1;jettySize=auto;html=1;exitX=0.5;exitY=1;exitDx=0;exitDy=0;entryX=0.5;entryY=0;entryDx=0;entryDy=0;" edge="1" parent="1" source="_uf0qR5cUyTxKE8fxkCO-9" target="_uf0qR5cUyTxKE8fxkCO-30">
          <mxGeometry relative="1" as="geometry" />
        </mxCell>
        <mxCell id="_uf0qR5cUyTxKE8fxkCO-9" value="Mock工具" style="rounded=0;whiteSpace=wrap;html=1;" vertex="1" parent="1">
          <mxGeometry x="490" y="280" width="90" height="40" as="geometry" />
        </mxCell>
        <mxCell id="_uf0qR5cUyTxKE8fxkCO-33" style="edgeStyle=orthogonalEdgeStyle;rounded=0;orthogonalLoop=1;jettySize=auto;html=1;exitX=0.5;exitY=1;exitDx=0;exitDy=0;entryX=0.5;entryY=0;entryDx=0;entryDy=0;" edge="1" parent="1" source="_uf0qR5cUyTxKE8fxkCO-10" target="_uf0qR5cUyTxKE8fxkCO-31">
          <mxGeometry relative="1" as="geometry" />
        </mxCell>
        <mxCell id="_uf0qR5cUyTxKE8fxkCO-10" value="多源数据采集" style="rounded=0;whiteSpace=wrap;html=1;" vertex="1" parent="1">
          <mxGeometry x="590" y="280" width="90" height="40" as="geometry" />
        </mxCell>
        <mxCell id="_uf0qR5cUyTxKE8fxkCO-11" value="数据采集&lt;span style=&quot;background-color: transparent; color: light-dark(rgb(0, 0, 0), rgb(255, 255, 255));&quot;&gt;记录&lt;/span&gt;&lt;div&gt;&lt;span style=&quot;background-color: transparent; color: light-dark(rgb(0, 0, 0), rgb(255, 255, 255));&quot;&gt;管理&lt;/span&gt;&lt;/div&gt;" style="rounded=0;whiteSpace=wrap;html=1;" vertex="1" parent="1">
          <mxGeometry x="390" y="280" width="90" height="40" as="geometry" />
        </mxCell>
        <mxCell id="_uf0qR5cUyTxKE8fxkCO-12" value="添&lt;div&gt;加&lt;/div&gt;&lt;div&gt;用&lt;/div&gt;&lt;div&gt;户&lt;/div&gt;" style="rounded=0;whiteSpace=wrap;html=1;" vertex="1" parent="1">
          <mxGeometry x="40" y="360" width="30" height="150" as="geometry" />
        </mxCell>
        <mxCell id="_uf0qR5cUyTxKE8fxkCO-13" value="修&lt;div&gt;改&lt;/div&gt;&lt;div&gt;用&lt;/div&gt;&lt;div&gt;户&lt;/div&gt;" style="rounded=0;whiteSpace=wrap;html=1;" vertex="1" parent="1">
          <mxGeometry x="80" y="360" width="30" height="150" as="geometry" />
        </mxCell>
        <mxCell id="_uf0qR5cUyTxKE8fxkCO-15" value="删&lt;div&gt;除&lt;/div&gt;&lt;div&gt;用&lt;/div&gt;&lt;div&gt;户&lt;/div&gt;" style="rounded=0;whiteSpace=wrap;html=1;" vertex="1" parent="1">
          <mxGeometry x="120" y="360" width="30" height="150" as="geometry" />
        </mxCell>
        <mxCell id="_uf0qR5cUyTxKE8fxkCO-16" value="查&lt;div&gt;询&lt;/div&gt;&lt;div&gt;用&lt;/div&gt;&lt;div&gt;户&lt;/div&gt;" style="rounded=0;whiteSpace=wrap;html=1;" vertex="1" parent="1">
          <mxGeometry x="160" y="360" width="30" height="150" as="geometry" />
        </mxCell>
        <mxCell id="_uf0qR5cUyTxKE8fxkCO-26" style="edgeStyle=orthogonalEdgeStyle;rounded=0;orthogonalLoop=1;jettySize=auto;html=1;exitX=0.5;exitY=1;exitDx=0;exitDy=0;entryX=0.5;entryY=0;entryDx=0;entryDy=0;" edge="1" parent="1" source="_uf0qR5cUyTxKE8fxkCO-21" target="_uf0qR5cUyTxKE8fxkCO-22">
          <mxGeometry relative="1" as="geometry" />
        </mxCell>
        <mxCell id="_uf0qR5cUyTxKE8fxkCO-27" style="edgeStyle=orthogonalEdgeStyle;rounded=0;orthogonalLoop=1;jettySize=auto;html=1;exitX=0.5;exitY=1;exitDx=0;exitDy=0;entryX=0.5;entryY=0;entryDx=0;entryDy=0;" edge="1" parent="1" source="_uf0qR5cUyTxKE8fxkCO-21" target="_uf0qR5cUyTxKE8fxkCO-23">
          <mxGeometry relative="1" as="geometry" />
        </mxCell>
        <mxCell id="_uf0qR5cUyTxKE8fxkCO-28" style="edgeStyle=orthogonalEdgeStyle;rounded=0;orthogonalLoop=1;jettySize=auto;html=1;exitX=0.5;exitY=1;exitDx=0;exitDy=0;entryX=0.5;entryY=0;entryDx=0;entryDy=0;" edge="1" parent="1" source="_uf0qR5cUyTxKE8fxkCO-21" target="_uf0qR5cUyTxKE8fxkCO-24">
          <mxGeometry relative="1" as="geometry" />
        </mxCell>
        <mxCell id="_uf0qR5cUyTxKE8fxkCO-29" style="edgeStyle=orthogonalEdgeStyle;rounded=0;orthogonalLoop=1;jettySize=auto;html=1;exitX=0.5;exitY=1;exitDx=0;exitDy=0;entryX=0.5;entryY=0;entryDx=0;entryDy=0;" edge="1" parent="1" source="_uf0qR5cUyTxKE8fxkCO-21" target="_uf0qR5cUyTxKE8fxkCO-25">
          <mxGeometry relative="1" as="geometry" />
        </mxCell>
        <mxCell id="_uf0qR5cUyTxKE8fxkCO-21" value="采集设备管理" style="rounded=0;whiteSpace=wrap;html=1;" vertex="1" parent="1">
          <mxGeometry x="240" y="280" width="90" height="40" as="geometry" />
        </mxCell>
        <mxCell id="_uf0qR5cUyTxKE8fxkCO-22" value="添&lt;div&gt;加&lt;/div&gt;&lt;div&gt;设&lt;/div&gt;&lt;div&gt;备&lt;/div&gt;" style="rounded=0;whiteSpace=wrap;html=1;" vertex="1" parent="1">
          <mxGeometry x="210" y="360" width="30" height="150" as="geometry" />
        </mxCell>
        <mxCell id="_uf0qR5cUyTxKE8fxkCO-23" value="修&lt;div&gt;改&lt;div&gt;设&lt;/div&gt;&lt;div&gt;备&lt;/div&gt;&lt;/div&gt;" style="rounded=0;whiteSpace=wrap;html=1;" vertex="1" parent="1">
          <mxGeometry x="250" y="360" width="30" height="150" as="geometry" />
        </mxCell>
        <mxCell id="_uf0qR5cUyTxKE8fxkCO-24" value="删&lt;div&gt;除&lt;/div&gt;&lt;div&gt;设&lt;/div&gt;&lt;div&gt;备&lt;/div&gt;" style="rounded=0;whiteSpace=wrap;html=1;" vertex="1" parent="1">
          <mxGeometry x="290" y="360" width="30" height="150" as="geometry" />
        </mxCell>
        <mxCell id="_uf0qR5cUyTxKE8fxkCO-25" value="查&lt;div&gt;询&lt;/div&gt;&lt;div&gt;设&lt;/div&gt;&lt;div&gt;备&lt;/div&gt;" style="rounded=0;whiteSpace=wrap;html=1;" vertex="1" parent="1">
          <mxGeometry x="330" y="360" width="30" height="150" as="geometry" />
        </mxCell>
        <mxCell id="_uf0qR5cUyTxKE8fxkCO-30" value="数&lt;div&gt;据&lt;/div&gt;&lt;div&gt;发&lt;/div&gt;&lt;div&gt;送&lt;/div&gt;" style="rounded=0;whiteSpace=wrap;html=1;" vertex="1" parent="1">
          <mxGeometry x="520" y="360" width="30" height="150" as="geometry" />
        </mxCell>
        <mxCell id="_uf0qR5cUyTxKE8fxkCO-31" value="数&lt;div&gt;据&lt;/div&gt;&lt;div&gt;采&lt;/div&gt;&lt;div&gt;集&lt;/div&gt;" style="rounded=0;whiteSpace=wrap;html=1;" vertex="1" parent="1">
          <mxGeometry x="617" y="360" width="35.5" height="150" as="geometry" />
        </mxCell>
        <mxCell id="_uf0qR5cUyTxKE8fxkCO-35" value="查&lt;div&gt;询&lt;/div&gt;&lt;div&gt;数&lt;/div&gt;&lt;div&gt;据&lt;/div&gt;" style="rounded=0;whiteSpace=wrap;html=1;" vertex="1" parent="1">
          <mxGeometry x="390" y="360" width="30" height="150" as="geometry" />
        </mxCell>
        <mxCell id="_uf0qR5cUyTxKE8fxkCO-36" value="修&lt;div&gt;改&lt;/div&gt;&lt;div&gt;&lt;div&gt;数&lt;/div&gt;&lt;div&gt;据&lt;/div&gt;&lt;/div&gt;" style="rounded=0;whiteSpace=wrap;html=1;" vertex="1" parent="1">
          <mxGeometry x="450" y="360" width="30" height="150" as="geometry" />
        </mxCell>
      </root>
    </mxGraphModel>
  </diagram>
</mxfile>
